<svg width="38" height="43" viewBox="0 0 38 43" fill="none"
    xmlns="http://www.w3.org/2000/svg">
    <path d="M26.5199 32.125L21.5768 36.7918C20.7188 37.6317 19.5363 37.981 18.2328 37.981C16.9293 37.981 15.7481 37.6317 14.8888 36.7918L6.94676 28.9819C6.09426 28.1421 5.65839 26.9166 5.65839 25.6427C5.65839 24.3635 6.09426 23.2078 6.94676 22.3747L14.8668 14.5219C15.7193 13.6901 16.9293 13.3676 18.2328 13.3676C19.5363 13.3676 20.7188 13.7169 21.5768 14.5568L26.5199 19.2236C27.4645 20.1481 29.0265 20.1145 30.0069 19.1538C30.9804 18.1957 31.0175 16.6705 30.0715 15.746L25.2961 11.0281C24.0573 9.83082 22.5021 9.00576 20.8123 8.62682L25.3319 4.1481C26.2779 3.22494 26.249 1.69844 25.2673 0.74035C24.2855 -0.217744 22.7249 -0.247307 21.7803 0.670475L3.26039 18.7694C1.46326 20.5324 0.525513 22.9525 0.525513 25.64C0.525513 28.3222 1.46464 30.8269 3.26039 32.5845L11.2313 40.3944C13.0284 42.1507 15.5144 42.9973 18.2644 42.9973C21.0075 42.9973 23.4908 42.0795 25.2893 40.3245L30.0729 35.5932C31.0189 34.6754 30.9818 33.1516 30.0014 32.1922C29.021 31.2327 27.459 31.1978 26.5213 32.1223L26.5199 32.125ZM35.1549 23.3127H16.5498C15.2683 23.3127 14.2233 24.389 14.2233 25.7193C14.2233 27.051 15.2683 28.134 16.5498 28.134H35.1549C36.4378 28.134 37.4828 27.0496 37.4828 25.7193C37.4828 24.3903 36.4378 23.3127 35.1549 23.3127Z" fill="#F3C851"/>
</svg>

