<svg width="67" height="56" viewBox="0 0 67 56" fill="none"
    xmlns="http://www.w3.org/2000/svg">
    <path d="M59.2812 0.25H7.71875C3.73437 0.25 0.6875 3.25625 0.6875 7.1875V48.8125C0.6875 52.7438 3.73437 55.75 7.71875 55.75H59.2812C63.2656 55.75 66.3125 52.7438 66.3125 48.8125V7.1875C66.3125 3.25625 63.2656 0.25 59.2812 0.25ZM17.3281 8.575C17.5625 8.34375 17.5625 8.1125 17.7969 7.88125C18.0313 7.65 18.2656 7.41875 18.5 7.41875C19.4375 6.95625 20.375 7.1875 21.0781 7.88125C21.3125 8.1125 21.5469 8.34375 21.5469 8.575C21.7812 8.80625 21.7812 9.26875 21.7812 9.5C21.7812 10.1938 21.5469 10.6562 21.0781 11.1187C20.6094 11.5812 20.1406 11.8125 19.4375 11.8125C18.7344 11.8125 18.2656 11.5812 17.7969 11.1187C17.3281 10.6562 17.0938 10.1938 17.0938 9.5C17.0938 9.26875 17.0938 8.80625 17.3281 8.575ZM10.0625 9.5C10.0625 8.80625 10.2969 8.34375 10.7656 7.88125L11 7.65C11.2344 7.65 11.2344 7.41875 11.4687 7.41875C11.7031 7.1875 11.7031 7.1875 11.9375 7.1875C12.1719 7.1875 12.6406 7.1875 12.875 7.1875C13.1094 7.1875 13.1094 7.1875 13.3438 7.41875C13.5781 7.41875 13.5781 7.65 13.8125 7.65L14.0469 7.88125C14.2812 8.1125 14.5156 8.34375 14.5156 8.575C14.75 8.80625 14.75 9.26875 14.75 9.5C14.75 9.73125 14.75 10.1937 14.5156 10.425C14.5156 10.6562 14.2812 10.8875 14.0469 11.1187C13.5781 11.5812 13.1094 11.8125 12.4062 11.8125C11.7031 11.8125 11.2344 11.5812 10.7656 11.1187C10.2969 10.6562 10.0625 10.1938 10.0625 9.5ZM23.4219 34.2438L16.3906 41.1813C15.9219 41.6438 15.4531 41.875 14.75 41.875C14.0469 41.875 13.5781 41.6438 13.1094 41.1813C12.1719 40.2563 12.1719 38.8687 13.1094 37.9437L18.5 32.625L13.1094 27.3062C12.1719 26.3812 12.1719 24.9938 13.1094 24.0688C14.0469 23.1438 15.4531 23.1438 16.3906 24.0688L23.4219 31.0062C24.3594 31.9312 24.3594 33.3188 23.4219 34.2438ZM24.8281 11.1187C24.5938 10.8875 24.3594 10.6562 24.3594 10.425C24.125 10.1937 24.125 9.73125 24.125 9.5C24.125 9.26875 24.125 8.80625 24.3594 8.575C24.5938 8.34375 24.5938 8.1125 24.8281 7.88125C25.7656 6.95625 27.1719 6.95625 28.1094 7.88125C28.3437 8.1125 28.5781 8.34375 28.5781 8.575C28.8125 8.80625 28.8125 9.26875 28.8125 9.5C28.8125 9.73125 28.8125 10.1937 28.5781 10.425C28.3437 10.6562 28.3437 10.8875 28.1094 11.1187C27.6406 11.5812 27.1719 11.8125 26.4688 11.8125C26.2344 11.8125 25.7656 11.8125 25.5313 11.5812C25.2969 11.5812 25.0625 11.35 24.8281 11.1187ZM38.1875 41.875H28.8125C27.4062 41.875 26.4688 40.95 26.4688 39.5625C26.4688 38.175 27.4062 37.25 28.8125 37.25H38.1875C39.5938 37.25 40.5312 38.175 40.5312 39.5625C40.5312 40.95 39.5938 41.875 38.1875 41.875Z" fill="#F3C851"/>
</svg>
